# Blender 5.2.2 LTS
# www.blender.org
mtllib WallQuick.mtl
o Cube
v 0.350000 5.000000 -5.000000
v 0.350000 -5.000000 -5.000000
v 0.350000 5.000000 5.000000
v 0.350000 -5.000000 5.000000
v -0.350000 5.000000 -5.000000
v -0.350000 -5.000000 -5.000000
v -0.350000 5.000000 5.000000
v -0.350000 -5.000000 5.000000
v 0.350000 1.254464 -5.000000
v -0.350000 1.254464 5.000000
v 0.350000 1.254464 5.000000
v -0.350000 1.254464 -5.000000
v 0.350000 0.964301 -5.000000
v 0.350000 0.964301 5.000000
v -0.350000 0.964301 -5.000000
v -0.350000 0.964301 5.000000
v 0.350000 -3.355473 -5.000000
v 0.350000 -3.355473 5.000000
v -0.350000 -3.355473 -5.000000
v -0.350000 -3.355473 5.000000
v 0.350000 -3.648553 -5.000000
v 0.350000 -3.648553 5.000000
v -0.350000 -3.648553 -5.000000
v -0.350000 -3.648553 5.000000
v -0.350000 0.964301 5.000000
v -0.350000 1.254464 5.000000
v 0.350000 1.254464 -5.000000
v 0.350000 1.254464 5.000000
v -0.350000 1.254464 -5.000000
v 0.350000 0.964301 -5.000000
v 0.350000 0.964301 5.000000
v -0.350000 0.964301 -5.000000
v -0.350000 -3.648553 5.000000
v -0.350000 -3.355473 5.000000
v 0.350000 -3.355473 -5.000000
v 0.350000 -3.355473 5.000000
v -0.350000 -3.355473 -5.000000
v 0.350000 -3.648553 -5.000000
v 0.350000 -3.648553 5.000000
v -0.350000 -3.648553 -5.000000
v 0.300000 1.254464 -5.000000
v 0.300000 1.254464 5.000000
v 0.300000 0.964301 -5.000000
v 0.300000 0.964301 5.000000
v 0.300000 -3.355473 -5.000000
v 0.300000 -3.355473 5.000000
v 0.300000 -3.648553 -5.000000
v 0.300000 -3.648553 5.000000
v -0.300000 0.964301 5.000000
v -0.300000 1.254464 5.000000
v -0.300000 1.254464 -5.000000
v -0.300000 0.964301 -5.000000
v -0.300000 -3.648553 5.000000
v -0.300000 -3.355473 5.000000
v -0.300000 -3.355473 -5.000000
v -0.300000 -3.648553 -5.000000
v -0.350000 0.964301 4.950000
v -0.350000 1.254464 4.950000
v -0.350000 1.254464 -4.950000
v 0.350000 1.254464 -4.950000
v 0.350000 1.254464 4.950000
v 0.350000 0.964301 -4.950000
v 0.350000 0.964301 4.950000
v -0.350000 0.964301 -4.950000
v -0.350000 -3.648553 4.950000
v -0.350000 -3.355473 4.950000
v -0.350000 -3.355473 -4.950000
v 0.350000 -3.355473 -4.950000
v 0.350000 -3.355473 4.950000
v 0.350000 -3.648553 -4.950000
v 0.350000 -3.648553 4.950000
v -0.350000 -3.648553 -4.950000
vn -0.0000 1.0000 -0.0000
vn -0.0000 -0.0000 1.0000
vn -1.0000 -0.0000 -0.0000
vn -0.0000 -1.0000 -0.0000
vn 1.0000 -0.0000 -0.0000
vn -0.0000 -0.0000 -1.0000
vt 0.625000 0.500000
vt 0.875000 0.500000
vt 0.875000 0.750000
vt 0.625000 0.750000
vt 0.531362 0.750000
vt 0.625000 1.000000
vt 0.531362 1.000000
vt 0.531362 0.000000
vt 0.625000 0.000000
vt 0.625000 0.250000
vt 0.531362 0.250000
vt 0.125000 0.500000
vt 0.375000 0.500000
vt 0.375000 0.750000
vt 0.125000 0.750000
vt 0.531362 0.500000
vt 0.416113 0.750000
vt 0.416113 1.000000
vt 0.524107 0.750000
vt 0.524108 1.000000
vt 0.524107 0.500000
vt 0.416113 0.000000
vt 0.524107 0.000000
vt 0.524107 0.250000
vt 0.416113 0.250000
vt 0.416113 0.500000
vt 0.408786 0.750000
vt 0.408786 0.500000
vt 0.408786 1.000000
vt 0.375000 1.000000
vt 0.375000 0.000000
vt 0.408786 0.000000
vt 0.408786 0.250000
vt 0.375000 0.250000
s 0
usemtl Material
f 1/1/1 5/2/1 7/3/1 3/4/1
f 11/5/2 3/4/2 7/6/2 10/7/2
f 10/8/3 7/9/3 5/10/3 12/11/3
f 6/12/4 2/13/4 4/14/4 8/15/4
f 9/16/5 1/1/5 3/4/5 11/5/5
f 12/11/6 5/10/6 1/1/6 9/16/6
f 18/17/4 20/18/4 66/18/4 69/17/4
f 11/5/1 14/19/1 31/19/1 28/5/1
f 16/20/1 10/7/1 26/7/1 25/20/1
f 9/16/3 13/21/3 62/21/3 60/16/3
f 18/17/2 14/19/2 16/20/2 20/18/2
f 20/22/3 16/23/3 15/24/3 19/25/3
f 17/26/5 13/21/5 14/19/5 18/17/5
f 19/25/6 15/24/6 13/21/6 17/26/6
f 13/21/1 15/24/1 64/24/1 62/21/1
f 13/21/1 9/16/1 27/16/1 30/21/1
f 22/27/1 21/28/1 38/28/1 39/27/1
f 11/5/4 10/7/4 58/7/4 61/5/4
f 4/14/2 22/27/2 24/29/2 8/30/2
f 8/31/3 24/32/3 23/33/3 6/34/3
f 2/13/5 21/28/5 22/27/5 4/14/5
f 6/34/6 23/33/6 21/28/6 2/13/6
f 28/5/6 31/19/6 44/19/6 42/5/6
f 37/25/2 40/33/2 56/33/2 55/25/2
f 39/27/1 38/28/1 47/28/1 48/27/1
f 32/24/1 25/23/1 49/23/1 52/24/1
f 21/28/1 17/26/1 35/26/1 38/28/1
f 12/11/1 15/24/1 32/24/1 29/11/1
f 18/17/1 22/27/1 39/27/1 36/17/1
f 19/25/1 23/33/1 40/33/1 37/25/1
f 24/29/1 20/18/1 34/18/1 33/29/1
f 9/16/1 11/5/1 28/5/1 27/16/1
f 15/24/1 16/23/1 25/23/1 32/24/1
f 10/8/1 12/11/1 29/11/1 26/8/1
f 17/26/1 18/17/1 36/17/1 35/26/1
f 14/19/1 13/21/1 30/21/1 31/19/1
f 23/33/1 24/32/1 33/32/1 40/33/1
f 20/22/1 19/25/1 37/25/1 34/22/1
f 43/21/5 41/16/5 42/5/5 44/19/5
f 47/28/5 45/26/5 46/17/5 48/27/5
f 38/28/2 35/26/2 45/26/2 47/28/2
f 35/26/4 36/17/4 46/17/4 45/26/4
f 31/19/1 30/21/1 43/21/1 44/19/1
f 30/21/2 27/16/2 41/16/2 43/21/2
f 36/17/6 39/27/6 48/27/6 46/17/6
f 27/16/4 28/5/4 42/5/4 41/16/4
f 49/23/3 50/8/3 51/11/3 52/24/3
f 53/32/3 54/22/3 55/25/3 56/33/3
f 26/8/4 29/11/4 51/11/4 50/8/4
f 25/20/6 26/7/6 50/7/6 49/20/6
f 29/11/2 32/24/2 52/24/2 51/11/2
f 40/33/1 33/32/1 53/32/1 56/33/1
f 34/22/4 37/25/4 55/25/4 54/22/4
f 33/29/6 34/18/6 54/18/6 53/29/6
f 64/24/6 59/11/6 60/16/6 62/21/6
f 63/19/2 61/5/2 58/7/2 57/20/2
f 72/33/6 67/25/6 68/26/6 70/28/6
f 71/27/2 69/17/2 66/18/2 65/29/2
f 10/7/5 16/20/5 57/20/5 58/7/5
f 21/28/1 23/33/1 72/33/1 70/28/1
f 14/19/3 11/5/3 61/5/3 63/19/3
f 17/26/3 21/28/3 70/28/3 68/26/3
f 15/24/5 12/11/5 59/11/5 64/24/5
f 22/27/3 18/17/3 69/17/3 71/27/3
f 23/33/5 19/25/5 67/25/5 72/33/5
f 12/11/4 9/16/4 60/16/4 59/11/4
f 20/18/5 24/29/5 65/29/5 66/18/5
f 16/20/1 14/19/1 63/19/1 57/20/1
f 19/25/4 17/26/4 68/26/4 67/25/4
f 24/29/1 22/27/1 71/27/1 65/29/1
